<?xml version="1.0" encoding="utf-8"?>
<svg version="1.1" xmlns:xlink="http://www.w3.org/1999/xlink" width="39px" height="36px" xmlns="http://www.w3.org/2000/svg">
  <defs>
    <mask fill="white" id="clip135">
      <path d="M 10.81640625 0.0803571428571446  C 10.91796875 0.0267857142857162  11.0267857142857 0  11.1428571428571 0  C 11.3314732142857 0  11.4946986607143 0.063616071428573  11.6325334821429 0.190848214285715  C 11.7703683035714 0.318080357142857  11.8392857142857 0.468749999999997  12 0.642857142857145  L 12 30.2142857142857  C 11.8392857142857 30.4821428571429  11.7159598214286 30.6696428571429  11.4693080357143 30.7767857142857  L 1.02287946428571 35.9196428571429  C 0.921316964285714 35.9732142857143  0.8125 36  0.696428571428571 36  C 0.5078125 36  0.344587053571429 35.9363839285714  0.206752232142857 35.8091517857143  C 0.0689174107142857 35.6819196428571  0 35.53125  0 35.3571428571429  L 0 5.78571428571428  C 0 5.51785714285714  0.123325892857143 5.33035714285714  0.369977678571429 5.22321428571428  L 10.81640625 0.0803571428571446  Z M 37.9771205357143 0.0803571428571446  C 38.0786830357143 0.0267857142857162  38.1875 0  38.3035714285714 0  C 38.4921875 0  38.6554129464286 0.063616071428573  38.7932477678571 0.190848214285715  C 38.9310825892857 0.318080357142857  39 0.468749999999997  39 0.642857142857145  L 39 30.2142857142857  C 39 30.4821428571429  38.8766741071429 30.6696428571429  38.6300223214286 30.7767857142857  L 28.18359375 35.9196428571429  C 28.08203125 35.9732142857143  27.9732142857143 36  27.8571428571429 36  C 27.6685267857143 36  27.5053013392857 35.9363839285714  27.3674665178571 35.8091517857143  C 27.2296316964286 35.6819196428571  27.1607142857143 35.53125  27 35.3571428571429  L 27 5.78571428571428  C 27.1607142857143 5.51785714285714  27.2840401785714 5.33035714285714  27.5306919642857 5.22321428571428  L 37.9771205357143 0.0803571428571446  Z M 13.4388950892857 0.190848214285715  C 13.5767299107143 0.063616071428573  13.7399553571429 0  13.9285714285714 0  C 14.0446428571429 0  14.1462053571429 0.0200892857142851  14.2332589285714 0.0602678571428554  L 25.3761160714286 5.203125  C 25.6372767857143 5.33705357142857  25.7678571428571 5.53125  25 5.78571428571428  L 25 35.3571428571429  C 25.7678571428571 35.53125  25.6989397321429 35.6819196428571  25.5611049107143 35.8091517857143  C 25.4232700892857 35.9363839285714  25.2600446428571 36  25.0714285714286 36  C 24.9553571428571 36  24.8537946428571 35.9799107142857  24.7667410714286 35.9397321428571  L 13.6238839285714 30.796875  C 13.3627232142857 30.6629464285714  13.2321428571429 30.46875  14 30.2142857142857  L 14 0.642857142857145  C 13.2321428571429 0.468749999999997  13.3010602678571 0.318080357142857  13.4388950892857 0.190848214285715  Z " fill-rule="evenodd" />
    </mask>
  </defs>
  <g transform="matrix(1 0 0 1 -20 -119 )">
    <path d="M 10.81640625 0.0803571428571446  C 10.91796875 0.0267857142857162  11.0267857142857 0  11.1428571428571 0  C 11.3314732142857 0  11.4946986607143 0.063616071428573  11.6325334821429 0.190848214285715  C 11.7703683035714 0.318080357142857  11.8392857142857 0.468749999999997  12 0.642857142857145  L 12 30.2142857142857  C 11.8392857142857 30.4821428571429  11.7159598214286 30.6696428571429  11.4693080357143 30.7767857142857  L 1.02287946428571 35.9196428571429  C 0.921316964285714 35.9732142857143  0.8125 36  0.696428571428571 36  C 0.5078125 36  0.344587053571429 35.9363839285714  0.206752232142857 35.8091517857143  C 0.0689174107142857 35.6819196428571  0 35.53125  0 35.3571428571429  L 0 5.78571428571428  C 0 5.51785714285714  0.123325892857143 5.33035714285714  0.369977678571429 5.22321428571428  L 10.81640625 0.0803571428571446  Z M 37.9771205357143 0.0803571428571446  C 38.0786830357143 0.0267857142857162  38.1875 0  38.3035714285714 0  C 38.4921875 0  38.6554129464286 0.063616071428573  38.7932477678571 0.190848214285715  C 38.9310825892857 0.318080357142857  39 0.468749999999997  39 0.642857142857145  L 39 30.2142857142857  C 39 30.4821428571429  38.8766741071429 30.6696428571429  38.6300223214286 30.7767857142857  L 28.18359375 35.9196428571429  C 28.08203125 35.9732142857143  27.9732142857143 36  27.8571428571429 36  C 27.6685267857143 36  27.5053013392857 35.9363839285714  27.3674665178571 35.8091517857143  C 27.2296316964286 35.6819196428571  27.1607142857143 35.53125  27 35.3571428571429  L 27 5.78571428571428  C 27.1607142857143 5.51785714285714  27.2840401785714 5.33035714285714  27.5306919642857 5.22321428571428  L 37.9771205357143 0.0803571428571446  Z M 13.4388950892857 0.190848214285715  C 13.5767299107143 0.063616071428573  13.7399553571429 0  13.9285714285714 0  C 14.0446428571429 0  14.1462053571429 0.0200892857142851  14.2332589285714 0.0602678571428554  L 25.3761160714286 5.203125  C 25.6372767857143 5.33705357142857  25.7678571428571 5.53125  25 5.78571428571428  L 25 35.3571428571429  C 25.7678571428571 35.53125  25.6989397321429 35.6819196428571  25.5611049107143 35.8091517857143  C 25.4232700892857 35.9363839285714  25.2600446428571 36  25.0714285714286 36  C 24.9553571428571 36  24.8537946428571 35.9799107142857  24.7667410714286 35.9397321428571  L 13.6238839285714 30.796875  C 13.3627232142857 30.6629464285714  13.2321428571429 30.46875  14 30.2142857142857  L 14 0.642857142857145  C 13.2321428571429 0.468749999999997  13.3010602678571 0.318080357142857  13.4388950892857 0.190848214285715  Z " fill-rule="nonzero" fill="#f2f2f2" stroke="none" transform="matrix(1 0 0 1 20 119 )" />
    <path d="M 10.81640625 0.0803571428571446  C 10.91796875 0.0267857142857162  11.0267857142857 0  11.1428571428571 0  C 11.3314732142857 0  11.4946986607143 0.063616071428573  11.6325334821429 0.190848214285715  C 11.7703683035714 0.318080357142857  11.8392857142857 0.468749999999997  12 0.642857142857145  L 12 30.2142857142857  C 11.8392857142857 30.4821428571429  11.7159598214286 30.6696428571429  11.4693080357143 30.7767857142857  L 1.02287946428571 35.9196428571429  C 0.921316964285714 35.9732142857143  0.8125 36  0.696428571428571 36  C 0.5078125 36  0.344587053571429 35.9363839285714  0.206752232142857 35.8091517857143  C 0.0689174107142857 35.6819196428571  0 35.53125  0 35.3571428571429  L 0 5.78571428571428  C 0 5.51785714285714  0.123325892857143 5.33035714285714  0.369977678571429 5.22321428571428  L 10.81640625 0.0803571428571446  Z " stroke-width="2" stroke="#000000" fill="none" transform="matrix(1 0 0 1 20 119 )" mask="url(#clip135)" />
    <path d="M 37.9771205357143 0.0803571428571446  C 38.0786830357143 0.0267857142857162  38.1875 0  38.3035714285714 0  C 38.4921875 0  38.6554129464286 0.063616071428573  38.7932477678571 0.190848214285715  C 38.9310825892857 0.318080357142857  39 0.468749999999997  39 0.642857142857145  L 39 30.2142857142857  C 39 30.4821428571429  38.8766741071429 30.6696428571429  38.6300223214286 30.7767857142857  L 28.18359375 35.9196428571429  C 28.08203125 35.9732142857143  27.9732142857143 36  27.8571428571429 36  C 27.6685267857143 36  27.5053013392857 35.9363839285714  27.3674665178571 35.8091517857143  C 27.2296316964286 35.6819196428571  27.1607142857143 35.53125  27 35.3571428571429  L 27 5.78571428571428  C 27.1607142857143 5.51785714285714  27.2840401785714 5.33035714285714  27.5306919642857 5.22321428571428  L 37.9771205357143 0.0803571428571446  Z " stroke-width="2" stroke="#000000" fill="none" transform="matrix(1 0 0 1 20 119 )" mask="url(#clip135)" />
    <path d="M 13.4388950892857 0.190848214285715  C 13.5767299107143 0.063616071428573  13.7399553571429 0  13.9285714285714 0  C 14.0446428571429 0  14.1462053571429 0.0200892857142851  14.2332589285714 0.0602678571428554  L 25.3761160714286 5.203125  C 25.6372767857143 5.33705357142857  25.7678571428571 5.53125  25 5.78571428571428  L 25 35.3571428571429  C 25.7678571428571 35.53125  25.6989397321429 35.6819196428571  25.5611049107143 35.8091517857143  C 25.4232700892857 35.9363839285714  25.2600446428571 36  25.0714285714286 36  C 24.9553571428571 36  24.8537946428571 35.9799107142857  24.7667410714286 35.9397321428571  L 13.6238839285714 30.796875  C 13.3627232142857 30.6629464285714  13.2321428571429 30.46875  14 30.2142857142857  L 14 0.642857142857145  C 13.2321428571429 0.468749999999997  13.3010602678571 0.318080357142857  13.4388950892857 0.190848214285715  Z " stroke-width="2" stroke="#000000" fill="none" transform="matrix(1 0 0 1 20 119 )" mask="url(#clip135)" />
  </g>
</svg>