<?xml version="1.0" encoding="utf-8"?>
<svg version="1.1" xmlns:xlink="http://www.w3.org/1999/xlink" width="23px" height="32px" xmlns="http://www.w3.org/2000/svg">
  <defs>
    <mask fill="white" id="clip136">
      <path d="M 15.5654296875 14.4375  C 16.6884765625 13.3958333333333  17.25 12.1388888888889  17.25 10.6666666666667  C 17.25 9.19444444444444  16.6884765625 7.9375  15.5654296875 6.89583333333333  C 14.4423828125 5.85416666666667  13.0872395833333 5.33333333333333  11.5 5.33333333333333  C 9.91276041666667 5.33333333333333  8.5576171875 5.85416666666667  7.4345703125 6.89583333333333  C 6.3115234375 7.9375  5.75 9.19444444444444  5.75 10.6666666666667  C 5.75 12.1388888888889  6.3115234375 13.3958333333333  7.4345703125 14.4375  C 8.5576171875 15.4791666666667  9.91276041666667 16  11.5 16  C 13.0872395833333 16  14.4423828125 15.4791666666667  15.5654296875 14.4375  Z M 19.630859375 3.125  C 21.876953125 5.20833333333333  23 7.72222222222222  23 10.6666666666667  C 23 12.1805555555556  22.7529296875 13.4236111111111  22.2587890625 14.3958333333333  L 14.0830078125 30.5208333333333  C 13.8434244791667 30.9791666666667  13.48779296875 31.3402777777778  13.01611328125 31.6041666666667  C 12.54443359375 31.8680555555556  12.0390625 32  11.5 32  C 10.9609375 32  10.45556640625 31.8680555555556  9.98388671875 31.6041666666667  C 9.51220703125 31.3402777777778  9.1640625 30.9791666666667  8.939453125 30.5208333333333  L 0.7412109375 14.3958333333333  C 0.2470703125 13.4236111111111  0 12.1805555555556  0 10.6666666666667  C 0 7.72222222222222  1.123046875 5.20833333333333  3.369140625 3.125  C 5.615234375 1.04166666666667  8.32552083333333 0  11.5 0  C 14.6744791666667 0  17.384765625 1.04166666666667  19.630859375 3.125  Z " fill-rule="evenodd" />
    </mask>
  </defs>
  <g transform="matrix(1 0 0 1 -48 -112 )">
    <path d="M 15.5654296875 14.4375  C 16.6884765625 13.3958333333333  17.25 12.1388888888889  17.25 10.6666666666667  C 17.25 9.19444444444444  16.6884765625 7.9375  15.5654296875 6.89583333333333  C 14.4423828125 5.85416666666667  13.0872395833333 5.33333333333333  11.5 5.33333333333333  C 9.91276041666667 5.33333333333333  8.5576171875 5.85416666666667  7.4345703125 6.89583333333333  C 6.3115234375 7.9375  5.75 9.19444444444444  5.75 10.6666666666667  C 5.75 12.1388888888889  6.3115234375 13.3958333333333  7.4345703125 14.4375  C 8.5576171875 15.4791666666667  9.91276041666667 16  11.5 16  C 13.0872395833333 16  14.4423828125 15.4791666666667  15.5654296875 14.4375  Z M 19.630859375 3.125  C 21.876953125 5.20833333333333  23 7.72222222222222  23 10.6666666666667  C 23 12.1805555555556  22.7529296875 13.4236111111111  22.2587890625 14.3958333333333  L 14.0830078125 30.5208333333333  C 13.8434244791667 30.9791666666667  13.48779296875 31.3402777777778  13.01611328125 31.6041666666667  C 12.54443359375 31.8680555555556  12.0390625 32  11.5 32  C 10.9609375 32  10.45556640625 31.8680555555556  9.98388671875 31.6041666666667  C 9.51220703125 31.3402777777778  9.1640625 30.9791666666667  8.939453125 30.5208333333333  L 0.7412109375 14.3958333333333  C 0.2470703125 13.4236111111111  0 12.1805555555556  0 10.6666666666667  C 0 7.72222222222222  1.123046875 5.20833333333333  3.369140625 3.125  C 5.615234375 1.04166666666667  8.32552083333333 0  11.5 0  C 14.6744791666667 0  17.384765625 1.04166666666667  19.630859375 3.125  Z " fill-rule="nonzero" fill="#d9001b" stroke="none" transform="matrix(1 0 0 1 48 112 )" />
    <path d="M 15.5654296875 14.4375  C 16.6884765625 13.3958333333333  17.25 12.1388888888889  17.25 10.6666666666667  C 17.25 9.19444444444444  16.6884765625 7.9375  15.5654296875 6.89583333333333  C 14.4423828125 5.85416666666667  13.0872395833333 5.33333333333333  11.5 5.33333333333333  C 9.91276041666667 5.33333333333333  8.5576171875 5.85416666666667  7.4345703125 6.89583333333333  C 6.3115234375 7.9375  5.75 9.19444444444444  5.75 10.6666666666667  C 5.75 12.1388888888889  6.3115234375 13.3958333333333  7.4345703125 14.4375  C 8.5576171875 15.4791666666667  9.91276041666667 16  11.5 16  C 13.0872395833333 16  14.4423828125 15.4791666666667  15.5654296875 14.4375  Z " stroke-width="2" stroke="#000000" fill="none" transform="matrix(1 0 0 1 48 112 )" mask="url(#clip136)" />
    <path d="M 19.630859375 3.125  C 21.876953125 5.20833333333333  23 7.72222222222222  23 10.6666666666667  C 23 12.1805555555556  22.7529296875 13.4236111111111  22.2587890625 14.3958333333333  L 14.0830078125 30.5208333333333  C 13.8434244791667 30.9791666666667  13.48779296875 31.3402777777778  13.01611328125 31.6041666666667  C 12.54443359375 31.8680555555556  12.0390625 32  11.5 32  C 10.9609375 32  10.45556640625 31.8680555555556  9.98388671875 31.6041666666667  C 9.51220703125 31.3402777777778  9.1640625 30.9791666666667  8.939453125 30.5208333333333  L 0.7412109375 14.3958333333333  C 0.2470703125 13.4236111111111  0 12.1805555555556  0 10.6666666666667  C 0 7.72222222222222  1.123046875 5.20833333333333  3.369140625 3.125  C 5.615234375 1.04166666666667  8.32552083333333 0  11.5 0  C 14.6744791666667 0  17.384765625 1.04166666666667  19.630859375 3.125  Z " stroke-width="2" stroke="#000000" fill="none" transform="matrix(1 0 0 1 48 112 )" mask="url(#clip136)" />
  </g>
</svg>