<?xml version="1.0" encoding="utf-8"?>
<svg version="1.1" xmlns:xlink="http://www.w3.org/1999/xlink" width="31px" height="31px" xmlns="http://www.w3.org/2000/svg">
  <g transform="matrix(1 0 0 1 -986 -8 )">
    <path d="M 30.3037109375 18.2750651041667  C 30.4315321180556 18.4028862847222  30.4954427083333 18.5542534722222  30.4954427083333 18.7291666666667  C 30.4954427083333 18.7964409722222  30.4887152777778 18.8435329861111  30.4752604166667 18.8704427083333  C 29.6141493055556 22.4763454861111  27.8111979166667 25.3994140625  25.06640625 27.6396484375  C 22.3216145833333 29.8798828125  19.1059027777778 31  15.4192708333333 31  C 13.4548611111111 31  11.5543619791667 30.6299913194444  9.7177734375 29.8899739583333  C 7.88118489583333 29.1499565972222  6.24305555555556 28.09375  4.80338541666667 26.7213541666667  L 2.19986979166667 29.3248697916667  C 1.94422743055556 29.5805121527778  1.64149305555556 29.7083333333333  1.29166666666667 29.7083333333333  C 0.941840277777778 29.7083333333333  0.639105902777778 29.5805121527778  0.383463541666667 29.3248697916667  C 0.127821180555556 29.0692274305556  0 28.7664930555556  0 28.4166666666667  L 0 19.375  C 0 19.0251736111111  0.127821180555556 18.7224392361111  0.383463541666667 18.466796875  C 0.639105902777778 18.2111545138889  0.941840277777778 18.0833333333333  1.29166666666667 18.0833333333333  L 10.3333333333333 18.0833333333333  C 10.6831597222222 18.0833333333333  10.9858940972222 18.2111545138889  11.2415364583333 18.466796875  C 11.4971788194444 18.7224392361111  11.625 19.0251736111111  11.625 19.375  C 11.625 19.7248263888889  11.4971788194444 20.0275607638889  11.2415364583333 20.283203125  L 8.4765625 23.0481770833333  C 9.43185763888889 23.9361979166667  10.5149739583333 24.6223958333333  11.7259114583333 25.1067708333333  C 12.9368489583333 25.5911458333333  14.1948784722222 25.8333333333333  15.5 25.8333333333333  C 17.3029513888889 25.8333333333333  18.9848090277778 25.3960503472222  20.5455729166667 24.521484375  C 22.1063368055556 23.6469184027778  23.3576388888889 22.4427083333333  24.2994791666667 20.9088541666667  C 24.4474826388889 20.6801215277778  24.8040364583333 19.8930121527778  25.369140625 18.5475260416667  C 25.4767795138889 18.2380642361111  25.6786024305556 18.0833333333333  25.974609375 18.0833333333333  L 29.849609375 18.0833333333333  C 30.0245225694444 18.0833333333333  30.1758897569444 18.1472439236111  30.3037109375 18.2750651041667  Z M 30.6165364583333 1.67513020833333  C 30.8721788194444 1.93077256944444  31 2.23350694444444  31 2.58333333333333  L 31 11.625  C 31 11.9748263888889  30.8721788194444 12.2775607638889  30.6165364583333 12.533203125  C 30.3608940972222 12.7888454861111  30.0581597222222 12.9166666666667  29.7083333333333 12.9166666666667  L 20.6666666666667 12.9166666666667  C 20.3168402777778 12.9166666666667  20.0141059027778 12.7888454861111  19.7584635416667 12.533203125  C 19.5028211805556 12.2775607638889  19.375 11.9748263888889  19.375 11.625  C 19.375 11.2751736111111  19.5028211805556 10.9724392361111  19.7584635416667 10.716796875  L 22.5436197916667 7.931640625  C 20.5523003472222 6.08832465277777  18.2044270833333 5.16666666666667  15.5 5.16666666666667  C 13.6970486111111 5.16666666666667  12.0151909722222 5.60394965277777  10.4544270833333 6.478515625  C 8.89366319444445 7.35308159722222  7.64236111111111 8.55729166666667  6.70052083333333 10.0911458333333  C 6.55251736111111 10.3198784722222  6.19596354166667 11.1069878472222  5.630859375 12.4524739583333  C 5.52322048611111 12.7619357638889  5.32139756944445 12.9166666666667  5.025390625 12.9166666666667  L 1.00911458333333 12.9166666666667  C 0.834201388888889 12.9166666666667  0.682834201388889 12.8527560763889  0.555013020833333 12.7249348958333  C 0.427191840277778 12.5971137152778  0.36328125 12.4457465277778  0.36328125 12.2708333333333  L 0.36328125 12.1295572916667  C 1.23784722222222 8.52365451388889  3.05425347222222 5.6005859375  5.8125 3.3603515625  C 8.57074652777778 1.1201171875  11.7999131944444 0  15.5 0  C 17.4644097222222 0  19.375 0.373372395833334  21.2317708333333 1.1201171875  C 23.0885416666667 1.86686197916667  24.7367621527778 2.91970486111111  26.1764322916667 4.27864583333333  L 28.8001302083333 1.67513020833333  C 29.0557725694444 1.41948784722222  29.3585069444444 1.29166666666667  29.7083333333333 1.29166666666667  C 30.0581597222222 1.29166666666667  30.3608940972222 1.41948784722222  30.6165364583333 1.67513020833333  Z " fill-rule="nonzero" fill="#000000" stroke="none" transform="matrix(1 0 0 1 986 8 )" />
  </g>
</svg>